<svg xmlns="http://www.w3.org/2000/svg" fill="none" viewBox="0 0 324 127" height="127" width="324">
<rect fill="#DB0606" rx="63.5" height="127" width="324"></rect>
<mask height="87" width="234" y="27" x="48" maskUnits="userSpaceOnUse" style="mask-type:luminance" id="mask0_3_47">
<path fill="white" d="M282 27H48V113.498H282V27Z"></path>
</mask>
<g mask="url(#mask0_3_47)">
<mask height="86" width="234" y="27" x="48" maskUnits="userSpaceOnUse" style="mask-type:luminance" id="mask1_3_47">
<path fill="white" d="M48.7433 27.9105H281.089V112.588H48.7433V27.9105Z"></path>
</mask>
<g mask="url(#mask1_3_47)">
<path fill="white" d="M192.472 28.668C200.453 28.668 208.438 28.668 216.664 28.668C217.635 32.1678 218.606 35.664 219.57 39.1638C219.897 40.3517 220.228 41.5396 220.559 42.7311C221.035 44.4418 221.508 46.1526 221.978 47.8634C222.202 48.66 222.202 48.66 222.429 49.471C223.116 51.9891 223.468 54.0057 223.468 56.6412C226.21 56.6412 228.956 56.6412 231.783 56.6412C231.737 55.4106 231.687 54.1764 231.641 52.9067C231.68 45.4164 234.106 40.092 239.341 34.7179C246.078 29.1482 252.668 28.0207 261.265 28.668C267.418 29.7173 272.475 33.1423 276.281 38.0434C278.874 42.066 279.724 45.1141 280.165 49.8373C277.693 49.9476 275.221 50.0151 272.746 50.072C272.045 50.104 271.344 50.1361 270.619 50.1681C268.695 50.2036 266.938 50.2001 265.045 49.8373C263.559 48.0198 263.559 48.0198 262.776 46.0566C259.643 43.8692 257.292 43.4602 253.625 44.1111C250.648 45.0145 248.966 46.6648 247.376 49.2718C246.718 52.1562 246.789 54.557 247.657 57.3952C250.082 60.8807 252.458 61.6739 256.438 62.403C257.601 62.5879 258.764 62.7693 259.927 62.9507C266.358 64.1244 272.187 67.3041 276.196 72.5537C280.478 79.2331 280.94 85.9588 280.165 93.6838C278.642 100.022 274.158 105.19 268.78 108.711C262.613 112.438 255.485 112.925 248.525 111.336C242.226 109.063 237.307 104.809 234.049 98.9762C234.049 98.4782 234.049 97.9767 234.049 97.4646C172.928 97.4646 111.807 97.4646 48.8358 97.4646C48.8358 93.723 48.8358 89.9814 48.8358 86.1259C113.948 86.1259 179.059 86.1259 246.145 86.1259C246.896 88.3702 247.643 90.6144 248.414 92.9298C250.797 95.6507 253.155 96.547 256.684 96.8351C259.568 96.6003 261.218 95.3982 263.534 93.6838C265.501 90.5326 265.629 87.4668 265.045 83.8568C263.516 81.0541 262.655 79.7702 259.625 78.7885C257.658 78.4009 255.688 78.1057 253.707 77.8069C247.646 76.587 242.322 74.7731 238.36 69.7617C236.379 68.1826 234.504 68.3391 232.018 68.2181C231.125 68.1683 230.236 68.1185 229.315 68.0652C228.632 68.0367 227.949 68.0083 227.245 67.9798C227.409 68.4991 227.572 69.0184 227.743 69.5554C228.06 70.5762 228.06 70.5762 228.38 71.6183C228.59 72.2941 228.803 72.9698 229.02 73.6669C229.514 75.5413 229.514 75.5413 229.514 77.8069C224.524 77.8069 219.534 77.8069 214.395 77.8069C212.126 71.003 212.126 71.003 212.126 67.9798C207.388 68.2288 202.647 68.4813 197.764 68.7374C197.014 71.7321 196.267 74.7233 195.495 77.8069C190.505 77.8069 185.515 77.8069 180.375 77.8069C181.389 71.8993 182.659 66.1304 184.16 60.3259C184.48 59.0668 184.48 59.0668 184.807 57.7864C185.255 56.0295 185.707 54.2725 186.159 52.519C186.852 49.8231 187.542 47.1307 188.229 44.4347C188.666 42.724 189.107 41.0132 189.545 39.2989C189.854 38.0932 189.854 38.0932 190.171 36.859C190.363 36.1157 190.555 35.3688 190.75 34.6006C190.921 33.9461 191.088 33.2917 191.262 32.6195C191.622 31.2893 192.034 29.9769 192.472 28.668ZM203.81 43.0334C203.305 44.8758 202.8 46.7181 202.299 48.5605C202.156 49.0833 202.011 49.6061 201.861 50.1432C201.257 52.3768 200.787 54.3151 200.787 56.6412C203.28 56.6412 205.777 56.6412 208.349 56.6412C207.563 52.0211 206.716 47.5112 205.322 43.0334C204.824 43.0334 204.326 43.0334 203.81 43.0334Z"></path>
</g>
<mask height="51" width="51" y="27" x="48" maskUnits="userSpaceOnUse" style="mask-type:luminance" id="mask2_3_47">
<path fill="white" d="M48.7433 27.9105H98.0778V77.9883H48.7433V27.9105Z"></path>
</mask>
<g mask="url(#mask2_3_47)">
<path fill="white" d="M48.8358 28.6681C53.5448 28.6076 58.2539 28.5436 63.1052 28.4796C65.3103 28.4405 65.3103 28.4405 67.5581 28.3978C76.7058 28.2946 83.6733 29.006 90.5982 35.5253C96.1679 41.6535 97.6581 47.778 97.4519 55.8694C97.1104 61.9015 94.6741 66.7564 90.559 71.1382C84.1072 76.5088 77.2358 77.9385 69.0626 77.8816C68.2908 77.8816 68.2908 77.8816 67.5012 77.8816C65.5948 77.8745 63.6884 77.8638 61.7821 77.8567C57.507 77.839 53.2354 77.8247 48.8358 77.8069C48.8358 61.5921 48.8358 45.3773 48.8358 28.6681ZM63.1976 43.0334C63.1976 49.5208 63.1976 56.0046 63.1976 62.6876C65.2249 62.7516 67.2522 62.812 69.34 62.8761C69.9695 62.9045 70.599 62.933 71.2499 62.9614C75.2263 63.0183 77.4278 62.2892 80.5862 59.6644C82.4072 57.4201 82.8269 56.1326 83.1363 53.2375C82.7237 49.3963 81.5251 47.6393 78.6478 45.1105C75.4503 42.8165 72.9713 42.9445 69.1515 42.9872C66.203 43.0085 66.203 43.0085 63.1976 43.0334Z"></path>
</g>
<path fill="white" d="M167.739 32.8614C173.589 37.638 175.908 42.5782 177.352 49.8374C174.77 49.969 172.188 50.0508 169.602 50.1219C168.503 50.1788 168.503 50.1788 167.387 50.2357C165.324 50.2784 163.496 50.2677 161.475 49.8374C159.562 47.618 159.562 47.618 158.452 45.3026C155.682 43.5314 153.227 43.6274 150.083 44.136C147.057 44.9825 145.374 46.6755 143.806 49.3181C143.062 52.5155 143.628 55.2613 144.656 58.3414C146.331 60.6887 148.131 61.7202 150.98 62.2039C154.191 62.3995 156.29 62.2039 158.829 60.1375C160.711 58.3591 160.711 58.3591 161.475 56.6413C166.714 56.6413 171.953 56.6413 177.352 56.6413C174.567 65.9242 171.117 71.2912 162.798 76.2491C154.952 78.4721 147.732 78.3618 140.31 74.7838C134.342 70.779 130.205 65.572 128.512 58.5263C127.278 50.7977 128.829 43.9973 133.267 37.5064C141.69 27.1494 156.77 25.4529 167.739 32.8614Z"></path>
<path fill="white" d="M103.263 28.668C109.502 28.668 115.74 28.668 122.164 28.668C122.164 44.8864 122.164 61.1012 122.164 77.8069C115.929 77.8069 109.69 77.8069 103.263 77.8069C103.263 61.5921 103.263 45.3772 103.263 28.668Z"></path>
</g>
</svg>